<svg viewBox="0 0 30 30" fill="none" xmlns="http://www.w3.org/2000/svg"><path d="M6.782 11.944c.257.181 1.032.72 2.327 1.617 1.294.897 2.285 1.588 2.974 2.072.075.053.236.168.482.346.246.178.45.322.613.432.163.11.36.232.59.368.231.137.449.239.653.307.204.068.394.102.568.102h.022c.174 0 .364-.034.568-.102.204-.068.422-.17.653-.306.23-.137.427-.26.59-.37.163-.109.367-.253.613-.43.246-.179.407-.294.482-.347l5.313-3.69a5.392 5.392 0 001.384-1.396c.371-.544.557-1.116.557-1.713 0-.5-.18-.927-.54-1.283a1.755 1.755 0 00-1.276-.534H6.645c-.582 0-1.03.197-1.345.59-.314.394-.47.886-.47 1.476 0 .477.207.994.623 1.55.417.556.86.993 1.329 1.31z" fill="#fff"/><path d="M24.035 13.158c-2.481 1.68-4.366 2.986-5.652 3.917a28.12 28.12 0 01-1.05.743 6.44 6.44 0 01-1.073.545c-.446.186-.862.278-1.248.278h-.023c-.386 0-.803-.092-1.249-.278a6.471 6.471 0 01-1.073-.545 26.83 26.83 0 01-1.05-.743c-1.021-.75-2.902-2.055-5.641-3.917a6.012 6.012 0 01-1.147-.987v9.013c0 .5.178.927.534 1.282.355.356.783.534 1.282.534h16.71c.5 0 .927-.178 1.282-.534.356-.355.534-.783.534-1.282V12.17a6.262 6.262 0 01-1.136.987z" fill="#fff"/></svg>