<svg viewBox="0 0 30 30" fill="none" xmlns="http://www.w3.org/2000/svg"><path fill-rule="evenodd" clip-rule="evenodd" d="M4 13.9c0-4.125 0-6.187 1.05-7.633A5.5 5.5 0 016.267 5.05C7.713 4 9.775 4 13.9 4h2.2c4.125 0 6.187 0 7.633 1.05a5.5 5.5 0 011.217 1.217C26 7.713 26 9.775 26 13.9v2.2c0 4.125 0 6.187-1.05 7.633a5.5 5.5 0 01-1.217 1.217C22.287 26 20.225 26 16.1 26h-2.2c-4.125 0-6.187 0-7.633-1.05a5.5 5.5 0 01-1.217-1.217C4 22.287 4 20.225 4 16.1v-2.2zm11-4.723a5.824 5.824 0 100 11.647 5.824 5.824 0 000-11.647zm0 9.463A3.645 3.645 0 0111.36 15 3.644 3.644 0 0115 11.36 3.644 3.644 0 0118.64 15 3.645 3.645 0 0115 18.64zm7.036-9.9a.776.776 0 11-1.552 0 .776.776 0 011.552 0z" fill="#fff"/></svg>