<svg width="16" height="16" viewBox="0 0 16 16" fill="none" xmlns="http://www.w3.org/2000/svg">
<path fill-rule="evenodd" clip-rule="evenodd" d="M13.1309 2H2.90457C2.41543 2 2 2.38686 2 2.86343V13.136C2 13.6131 2.27257 14 2.76171 14H12.988C13.4777 14 14 13.6131 14 13.136V2.86343C14 2.38686 13.6206 2 13.1309 2ZM6.57143 6.57143H8.18686V7.39486H8.20457C8.45086 6.95086 9.17829 6.5 10.0777 6.5C11.804 6.5 12.2857 7.41657 12.2857 9.11429V12.2857H10.5714V9.42686C10.5714 8.66686 10.268 8 9.55828 8C8.69657 8 8.28571 8.58343 8.28571 9.54114V12.2857H6.57143V6.57143ZM3.71429 12.2857H5.42857V6.57143H3.71429V12.2857ZM5.64286 4.57143C5.64286 5.16343 5.16343 5.64286 4.57143 5.64286C3.97943 5.64286 3.5 5.16343 3.5 4.57143C3.5 3.97943 3.97943 3.5 4.57143 3.5C5.16343 3.5 5.64286 3.97943 5.64286 4.57143Z" fill="white"/>
</svg>
