<svg width="25" height="34" viewBox="0 0 25 34" fill="none" xmlns="http://www.w3.org/2000/svg">
<path d="M12.2213 0.882812C5.47853 0.882812 0 6.29661 0 12.9597C0 25.4531 11.2068 32.6407 11.675 32.9492C12.0028 33.1651 12.4398 33.1651 12.7676 32.9492C13.2515 32.6561 24.4427 25.4531 24.4427 12.9597C24.4427 6.29661 18.9641 0.882812 12.2213 0.882812ZM12.2213 18.0034C9.41183 18.0034 7.13301 15.7515 7.13301 12.9752C7.13301 10.1989 9.41183 7.94697 12.2213 7.94697C15.0308 7.94697 17.3096 10.1989 17.3096 12.9752C17.3096 15.7515 15.0308 18.0034 12.2213 18.0034Z" fill="#FF6600"/>
</svg>
