<svg viewBox="0 0 30 30" fill="none" xmlns="http://www.w3.org/2000/svg"><path d="M24.488 18.757l-2.486-2.486c-.663-.663-1.822-.664-2.486 0l-.414.415 4.972 4.971.414-.414a1.756 1.756 0 000-2.486zm-6.244-1.267c-.523.405-1.27.39-1.747-.09l-4.915-4.917c-.479-.48-.495-1.226-.09-1.748l-4.96-4.96c-2.134 2.488-2.05 6.236.305 8.59l7.777 7.78a6.29 6.29 0 008.59.305l-4.96-4.96zM12.71 6.984l-2.485-2.486c-.663-.663-1.822-.664-2.486 0l-.415.415 4.972 4.971.415-.414c.688-.688.686-1.8 0-2.486z" fill="#fff"/></svg>