<svg width="20" height="20" viewBox="0 0 20 20" fill="none" xmlns="http://www.w3.org/2000/svg">
<path d="M19.07 14.8312L17 12.7112C16.5547 12.2879 15.9931 12.0075 15.3872 11.9059C14.7813 11.8043 14.1589 11.8863 13.6 12.1412L12.7 11.2412C13.7605 9.82408 14.2449 8.05784 14.0555 6.298C13.8662 4.53816 13.0172 2.91539 11.6794 1.75636C10.3417 0.597337 8.61452 -0.0118809 6.84565 0.0513466C5.07678 0.114574 3.39754 0.845552 2.14596 2.09713C0.894381 3.34871 0.163402 5.02796 0.100175 6.79683C0.0369472 8.5657 0.646165 10.2928 1.80519 11.6306C2.96421 12.9683 4.58699 13.8173 6.34683 14.0067C8.10667 14.1961 9.87291 13.7117 11.29 12.6512L12.18 13.5412C11.8951 14.1008 11.793 14.7357 11.8881 15.3565C11.9831 15.9772 12.2706 16.5525 12.71 17.0012L14.83 19.1212C15.3925 19.683 16.155 19.9985 16.95 19.9985C17.745 19.9985 18.5075 19.683 19.07 19.1212C19.3557 18.8418 19.5828 18.5081 19.7378 18.1398C19.8928 17.7714 19.9726 17.3758 19.9726 16.9762C19.9726 16.5765 19.8928 16.1809 19.7378 15.8126C19.5828 15.4442 19.3557 15.1106 19.07 14.8312V14.8312ZM10.59 10.5912C9.89023 11.2892 8.99929 11.7641 8.02973 11.956C7.06017 12.1479 6.05549 12.0482 5.14259 11.6693C4.2297 11.2905 3.44955 10.6497 2.9007 9.8277C2.35185 9.00573 2.05893 8.03953 2.05893 7.05116C2.05893 6.06279 2.35185 5.0966 2.9007 4.27462C3.44955 3.45265 4.2297 2.81178 5.14259 2.43297C6.05549 2.05417 7.06017 1.95441 8.02973 2.14631C8.99929 2.33822 9.89023 2.81316 10.59 3.51116C11.0556 3.97562 11.4251 4.52737 11.6771 5.13483C11.9292 5.74228 12.0589 6.39349 12.0589 7.05116C12.0589 7.70884 11.9292 8.36005 11.6771 8.9675C11.4251 9.57495 11.0556 10.1267 10.59 10.5912V10.5912ZM17.66 17.6612C17.567 17.7549 17.4564 17.8293 17.3346 17.8801C17.2127 17.9308 17.082 17.957 16.95 17.957C16.818 17.957 16.6873 17.9308 16.5654 17.8801C16.4436 17.8293 16.333 17.7549 16.24 17.6612L14.12 15.5412C14.0263 15.4482 13.9519 15.3376 13.9011 15.2157C13.8503 15.0939 13.8242 14.9632 13.8242 14.8312C13.8242 14.6992 13.8503 14.5684 13.9011 14.4466C13.9519 14.3247 14.0263 14.2141 14.12 14.1212C14.213 14.0274 14.3236 13.953 14.4454 13.9023C14.5673 13.8515 14.698 13.8254 14.83 13.8254C14.962 13.8254 15.0927 13.8515 15.2146 13.9023C15.3364 13.953 15.447 14.0274 15.54 14.1212L17.66 16.2412C17.7537 16.3341 17.8281 16.4447 17.8789 16.5666C17.9297 16.6884 17.9558 16.8192 17.9558 16.9512C17.9558 17.0832 17.9297 17.2139 17.8789 17.3357C17.8281 17.4576 17.7537 17.5682 17.66 17.6612V17.6612Z" fill="white"/>
</svg>
