<svg width="55" height="52" viewBox="0 0 55 52" fill="none" xmlns="http://www.w3.org/2000/svg">
<path d="M28.6291 35.8416C28.6291 36.6173 28.0008 37.249 27.2217 37.249C26.4425 37.249 25.8143 36.6173 25.8143 35.8416C25.8143 35.0625 26.4425 34.4342 27.2217 34.4342C28.0008 34.4342 28.6291 35.066 28.6291 35.8416ZM49.7578 7.51088H40.7167L39.4321 5.36993V0.937105C39.4321 0.687913 39.3338 0.449248 39.1584 0.27376C38.9829 0.0982727 38.7442 0 38.495 0H15.9624C15.4429 0 15.0218 0.421171 15.0218 0.937105V5.36993L13.7372 7.51088H4.69605C3.4536 7.51088 2.25679 8.00575 1.37584 8.8867C0.494891 9.76765 0 10.961 0 12.2069V35.6802C0 36.9226 0.494891 38.1194 1.37584 39.0004C2.25679 39.8813 3.45009 40.3762 4.69605 40.3762H20.6584V46.0094H13.1475C12.6281 46.0094 12.2105 46.4305 12.2105 46.95V50.7054C12.2105 50.9546 12.3087 51.1933 12.4842 51.3688C12.6597 51.5443 12.8983 51.6425 13.1475 51.6425H41.3168C41.566 51.6425 41.8047 51.5443 41.9802 51.3688C42.1557 51.1933 42.2539 50.9546 42.2539 50.7054V46.95C42.2539 46.7008 42.1557 46.4621 41.9802 46.2866C41.8047 46.1112 41.566 46.0129 41.3168 46.0129H33.806V40.3797H49.7683C51.0108 40.3797 52.2076 39.8849 53.0886 39.0039C53.9695 38.123 54.4644 36.9296 54.4644 35.6837V12.2104C54.4644 10.968 53.9695 9.77116 53.0886 8.89021C52.2076 8.00926 51.0143 7.51439 49.7683 7.51439L49.7578 7.51088ZM49.7578 9.38859C50.5054 9.38859 51.2214 9.68692 51.7478 10.2134C52.2743 10.7398 52.5726 11.4593 52.5726 12.2034V30.9841H41.3063V16.2502C41.917 15.3306 42.2434 14.2496 42.2434 13.144C42.2434 9.54653 42.3557 10.3257 41.8398 9.38859H49.7543H49.7578ZM30.04 30.9841H24.4068V22.5326H30.04V30.9841ZM30.9806 20.6549H23.4697C22.9503 20.6549 22.5326 21.0761 22.5326 21.5955V30.9841H15.0218V18.0156C16.2642 18.7316 17.7313 18.9492 19.1282 18.6228C20.525 18.2928 21.7429 17.447 22.5361 16.2537C23.5785 17.826 25.3404 18.7737 27.2322 18.7737C29.1204 18.7737 30.8823 17.826 31.9282 16.2537C32.7214 17.4505 33.9393 18.2964 35.3362 18.6228C36.7331 18.9492 38.2002 18.7351 39.4426 18.0156V30.9841H31.9317V21.5955C31.9317 21.3463 31.8335 21.1077 31.658 20.9322C31.4825 20.7567 31.2439 20.6584 30.9947 20.6584L30.9806 20.6549ZM40.3692 13.144C40.3692 14.4848 39.6532 15.7237 38.4915 16.3976C37.3298 17.0679 35.8978 17.0679 34.736 16.3976C33.5743 15.7272 32.8583 14.4883 32.8583 13.144V11.2663H40.3692V13.144ZM30.9806 13.144C30.9806 14.4848 30.2646 15.7237 29.1029 16.3976C27.9412 17.0679 26.5092 17.0679 25.3474 16.3976C24.1857 15.7272 23.4697 14.4883 23.4697 13.144V11.2663H30.9806V13.144ZM30.212 6.57026L30.7735 9.38508H23.6733L24.2349 6.57026H30.2085H30.212ZM21.592 13.144C21.592 14.4848 20.876 15.7237 19.7143 16.3976C18.5526 17.0679 17.1206 17.0679 15.9588 16.3976C14.7971 15.7272 14.0811 14.4883 14.0811 13.144V11.2663H21.592V13.144ZM32.6934 9.38859L32.1318 6.57377H37.9615L39.6497 9.38859H32.6934ZM16.8995 1.87772H37.5579V4.69254H16.8995V1.87772ZM16.4958 6.57377H22.3255L21.764 9.38859H14.8077L16.4958 6.57377ZM1.87771 12.2069C1.87771 11.4593 2.17607 10.7434 2.70254 10.2169C3.229 9.69043 3.94847 9.39211 4.69254 9.39211H12.6071L12.3333 9.85188C12.1262 10.1888 12.221 10.5573 12.1999 13.1475C12.1999 14.2531 12.5263 15.3341 13.137 16.2537V30.9876H1.87068V12.2069H1.87771ZM40.3762 49.7648H14.0846V47.8871H40.3762V49.7648ZM31.9247 46.0094H22.5361V40.3762H31.9247V46.0094ZM49.7648 38.4985H4.69254C3.94496 38.4985 3.229 38.2002 2.70254 37.6737C2.17607 37.1472 1.87771 36.4277 1.87771 35.6837V32.8653H52.5832V35.6837C52.5832 36.4313 52.2848 37.1472 51.7583 37.6737C51.2319 38.2002 50.5124 38.4985 49.7683 38.4985H49.7648Z" fill="#CACACA"/>
</svg>
